<?xml version="1.0" encoding="utf-8"?>
<!-- Generator: Adobe Illustrator 23.0.1, SVG Export Plug-In . SVG Version: 6.00 Build 0)  -->
<svg version="1.1" xmlns="http://www.w3.org/2000/svg" xmlns:xlink="http://www.w3.org/1999/xlink" x="0px" y="0px"
	 viewBox="0 0 178.58267 28.34646" style="enable-background:new 0 0 178.58267 28.34646;" xml:space="preserve">
<style type="text/css">
	.st0{display:none;}
	.st1{display:inline;fill:#12120D;}
	.st2{display:inline;}
	.st3{fill:#12120D;}
	.st4{fill:#FFFFFF;}
</style>
<g id="Ebene_1">
</g>
<g id="Layer_2">
	<g class="st0">
		<circle class="st1" cx="20.67213" cy="23.52755" r="4.8189"/>
		<g class="st2">
			<path class="st3" d="M2.25887,22.96638c-0.38672,0-0.77974-0.07578-1.1583-0.23594
				c-1.51392-0.64048-2.22202-2.38692-1.58154-3.90084c0.17168-0.40586,0.30064-0.75679,0.39429-1.0728
				c0.10742-0.3627,0.22739-0.78804,0.3023-1.19253c0.07378-0.39844,0.13081-0.81113,0.16948-1.22676
				c0.03384-0.36328,0.04692-0.73633,0.03892-1.10894c-0.00889-0.41289-0.0501-0.84263-0.09321-1.24551
				c-0.03804-0.35459-0.10615-0.73423-0.19707-1.0978c-0.09082-0.36328-0.20176-0.78555-0.33589-1.16274
				c-0.11714-0.32949-0.2645-0.68565-0.45054-1.08877c-0.18218-0.39468-0.35581-0.72266-0.53086-1.00278
				c-0.25396-0.40625-0.48223-0.7394-0.69771-1.01826c-0.04971-0.06436-0.09956-0.12788-0.14937-0.19141l-0.05269-0.06724
				C-3.0967,6.05977-2.86897,4.18906-1.57468,3.17568c1.29434-1.01333,3.16509-0.78569,4.17837,0.50864l0.05,0.06377
				c0.05879,0.07495,0.11753,0.14995,0.17578,0.22534c0.33667,0.43569,0.67524,0.9273,1.03477,1.50239
				C4.17357,5.97076,4.46395,6.5148,4.75218,7.13926C5.01454,7.70767,5.2286,8.22754,5.40672,8.72852
				c0.21899,0.61602,0.37666,1.21157,0.502,1.71284c0.1585,0.63398,0.27319,1.27573,0.34092,1.90742
				c0.05449,0.5085,0.11201,1.11406,0.12573,1.75156c0.01289,0.59888-0.00835,1.20078-0.06318,1.78911
				c-0.05518,0.59316-0.13711,1.18496-0.24336,1.75874c-0.125,0.67515-0.29663,1.28853-0.44795,1.79946
				c-0.15757,0.53174-0.36021,1.08819-0.61948,1.70117C4.52108,22.28415,3.41864,22.96638,2.25887,22.96638z"/>
			<path class="st3" d="M0.26072,28.34636c-0.30742,0-0.61987-0.04795-0.92788-0.14893
				c-1.56201-0.51221-2.41304-2.19356-1.90088-3.75557c0.2792-0.85147,0.5124-1.54287,0.73389-2.17578
				c0.2313-0.66094,0.50078-1.36636,0.84805-2.22012c0.16387-0.40283,0.3333-0.81089,0.50376-1.21319
				c0.00083-0.002,0.00166-0.004,0.00254-0.006c0.35122-0.82779,0.70347-1.55747,1.07691-2.23072
				c0.36231-0.65312,0.7731-1.32261,1.25581-2.04673c0.44658-0.66982,0.94854-1.33838,1.49199-1.98716
				c0.55205-0.65894,1.07105-1.23545,1.58667-1.7625c0.58125-0.59404,1.17056-1.10425,1.77349-1.61782
				C7.2974,8.6772,7.94872,8.1897,8.69618,7.69136c0.68999-0.45996,1.34859-0.86533,2.01358-1.23936
				c0.72441-0.40747,1.47666-0.77739,2.23579-1.09942c0.7627-0.32363,1.52153-0.60806,2.25537-0.84541
				c0.75-0.24272,1.50913-0.45083,2.32031-0.63623c0.1998-0.04565,0.38779-0.08208,0.55366-0.11426l0.02593-0.00503
				c0.82632-0.17334,1.63892-0.31074,2.40088-0.43677c0.86494-0.14297,1.72314-0.25044,2.44864-0.33672
				c0.83906-0.09971,1.6794-0.17583,2.39082-0.23716c0.75098-0.06475,1.54502-0.11079,2.42735-0.14072l0.28857-0.00991
				c0.67539-0.02339,1.37373-0.04756,2.08711-0.04756c0.78291,0,1.57793,0.01348,2.3627,0.04004
				c0.95938,0.03252,1.70186,0.07373,2.40752,0.1335c0.67969,0.05767,1.42178,0.12778,2.33564,0.22075
				c0.77588,0.07886,1.60196,0.18604,2.45518,0.31846c0.76973,0.11943,1.56953,0.25762,2.37695,0.41074l0.53584,0.10161
				c0.05547,0.00986,0.11074,0.02134,0.16621,0.03447c0.07051,0.0166,0.13994,0.0356,0.20801,0.05693
				c1.00977,0.30884,1.83223,0.97925,2.32158,1.89448c0.55459,1.03731,0.58955,2.30152,0.09356,3.38194
				c-0.24551,0.53525-0.6085,1.00103-1.07891,1.38423c-0.02402,0.01968-0.04844,0.03906-0.07324,0.05815
				c-0.01924,0.0148-0.03857,0.0293-0.05801,0.04355c-0.29307,0.21733-0.57168,0.44883-0.85137,0.70747
				c-0.28916,0.26729-0.56231,0.5438-0.83516,0.84526c-0.27627,0.30542-0.50058,0.58198-0.68584,0.84566
				c-0.22109,0.31489-0.45058,0.65063-0.63105,0.973c-0.19805,0.35347-0.38477,0.68691-0.50029,0.97041l-0.06992,0.17158
				c-0.01064,0.02642-0.02158,0.05259-0.03291,0.07886c-0.00732,0.01694-0.01484,0.03384-0.02246,0.05059
				c-0.03066,0.06812-0.05859,0.13032-0.07431,0.16963c-0.0917,0.22905-0.16709,0.49233-0.21856,0.76216
				c-0.07051,0.37075-0.10899,0.6644-0.1207,0.92363c-0.01289,0.28189-0.00215,0.57207,0.03164,0.86245
				c0.0378,0.32515,0.09082,0.61206,0.16221,0.87774c0.06358,0.23711,0.16319,0.50484,0.30469,0.81924
				c0.11777,0.26177,0.28965,0.54429,0.45781,0.81064c0.12119,0.19175,0.29356,0.40874,0.49854,0.6273
				c0.19404,0.20698,0.43027,0.41089,0.7253,0.65347c0.17509,0.1439,0.4543,0.30913,0.72539,0.46602
				c0.24434,0.1415,0.56201,0.26816,0.77959,0.35107c1.53613,0.58516,2.30703,2.30479,1.72178,3.84092
				c-0.58506,1.53604-2.30479,2.30723-3.84092,1.72178c-0.40996-0.15615-1.02637-0.40508-1.64307-0.76211
				c-0.46328-0.26817-1.00078-0.59014-1.52285-1.01914c-0.41035-0.3374-0.85039-0.71387-1.2878-1.18047
				c-0.46484-0.4957-0.86494-1.00723-1.18887-1.51992c-0.2709-0.4291-0.58408-0.94814-0.85342-1.54683
				c-0.27383-0.60845-0.47852-1.171-0.62559-1.71929c-0.14727-0.54873-0.25391-1.11543-0.32558-1.73184
				c-0.0708-0.60728-0.09287-1.22036-0.06553-1.82149c0.025-0.54907,0.09483-1.11055,0.21983-1.76694
				c0.12354-0.64844,0.30488-1.27378,0.53906-1.85904c0.05498-0.1374,0.11006-0.26187,0.15703-0.3666l0.05752-0.14111
				c0.25401-0.62329,0.56699-1.18218,0.81856-1.63125c0.31142-0.55615,0.65683-1.06318,0.95361-1.48579
				c0.15176-0.21611,0.31367-0.43184,0.48769-0.64981c-0.271-0.0335-0.53584-0.06343-0.79355-0.0896
				c-0.88008-0.08955-1.59053-0.15674-2.23604-0.21147c-0.60166-0.05098-1.25137-0.08667-2.10645-0.11567
				c-0.71777-0.02427-1.44492-0.03662-2.16104-0.03662c-0.61035,0-1.22764,0.02139-1.88115,0.04399l-0.29277,0.01006
				c-0.77793,0.02642-1.4708,0.06636-2.11797,0.12217c-0.69736,0.06011-1.44649,0.12808-2.19922,0.21753
				c-0.65879,0.07837-1.4332,0.1751-2.18037,0.29863c-0.70147,0.11597-1.446,0.2418-2.16045,0.39194
				c-0.01709,0.00361-0.03413,0.00708-0.05137,0.01045c-0.00098,0.0002-0.00176,0.00034-0.00274,0.00054
				c-0.0001,0.00005-0.00019,0.00005-0.00029,0.00005l-0.00039,0.0001c-0.00117,0.00024-0.00234,0.00044-0.00352,0.00068
				l-0.04595,0.00893c-0.13213,0.02559-0.25693,0.0498-0.36055,0.07349c-0.63882,0.14595-1.23218,0.30845-1.81421,0.49678
				c-0.57593,0.18628-1.15239,0.40269-1.76279,0.66162c-0.55693,0.23628-1.10947,0.50806-1.64238,0.80781
				c-0.53301,0.2998-1.06616,0.62822-1.63003,1.0041c-0.55117,0.36748-1.01987,0.71709-1.43277,1.06885
				c-0.49458,0.42129-0.97217,0.83384-1.37876,1.24942c-0.40747,0.4165-0.82568,0.88169-1.27832,1.42202
				c-0.40469,0.48316-0.77559,0.97661-1.10234,1.46665c-0.39199,0.58804-0.72017,1.12202-1.00322,1.63223
				c-0.27114,0.48882-0.53359,1.03443-0.80244,1.66807c-0.00054,0.00122-0.00098,0.00229-0.00151,0.00352
				c-0.15933,0.37603-0.31768,0.75742-0.47075,1.13374c-0.30923,0.76016-0.54546,1.37783-0.74346,1.94346
				c-0.20815,0.59492-0.42935,1.25088-0.69605,2.06416C2.67728,27.55056,1.51229,28.34636,0.26072,28.34636z"/>
			<path class="st3" d="M42.78485,25.35938"/>
			<path class="st3" d="M42.78485,5.51686"/>
		</g>
	</g>
	<g>
		<g>
			<path class="st4" d="M72.11192,26.70954h-2.51494v-8.95516c0-3.3328-1.21657-4.9992-3.64972-4.9992
				c-1.25747,0-2.29792,0.47306-3.1209,1.41825c-0.82298,0.94612-1.23423,2.13946-1.23423,3.58095v8.95516h-2.51493V11.007h2.51493
				v2.60695h0.06134c1.18591-1.98332,2.90342-2.97498,5.15255-2.97498c1.71751,0,3.03121,0.55485,3.94109,1.66361
				c0.90987,1.10969,1.36481,2.71197,1.36481,4.80774V26.70954z"/>
			<path class="st4" d="M87.68063,26.70954h-2.51494v-2.4536h-0.06134c-1.09482,1.88109-2.70453,2.82163-4.83098,2.82163
				c-1.56509,0-2.7891-0.41358-3.67342-1.24167c-0.88432-0.82809-1.32625-1.92756-1.32625-3.29748
				c0-2.93409,1.72775-4.64138,5.18369-5.12141l4.7083-0.6594c0-2.66828-1.07995-4.00243-3.23614-4.00243
				c-1.89224,0-3.59861,0.64407-5.12234,1.93221v-2.57627c1.54418-0.98144,3.32304-1.47216,5.33611-1.47216
				c3.69154,0,5.53732,1.95265,5.53732,5.85796V26.70954z M85.16569,18.76603l-3.7882,0.52139
				c-1.16546,0.16357-2.04466,0.45261-2.63761,0.86619c-0.59296,0.41451-0.88989,1.1478-0.88989,2.2008
				c0,0.76675,0.27277,1.39316,0.82111,1.8783c0.54649,0.48607,1.27513,0.72864,2.18407,0.72864
				c1.24725,0,2.27701-0.43682,3.09116-1.31137c0.81229-0.87363,1.21936-1.98053,1.21936-3.31979V18.76603z"/>
			<path class="st4" d="M105.04724,26.70954h-2.51493v-8.95516c0-3.3328-1.21658-4.9992-3.64973-4.9992
				c-1.25746,0-2.29745,0.47306-3.1209,1.41825c-0.82251,0.94612-1.23423,2.13946-1.23423,3.58095v8.95516h-2.51494V11.007h2.51494
				v2.60695h0.06134c1.18591-1.98332,2.90342-2.97498,5.15255-2.97498c1.71751,0,3.03075,0.55485,3.94155,1.66361
				c0.90894,1.10969,1.36434,2.71197,1.36434,4.80774V26.70954z"/>
			<path class="st4" d="M116.07262,27.07758c-2.32069,0-4.1739-0.73329-5.55869-2.2008
				c-1.38573-1.46658-2.07813-3.4118-2.07813-5.83472c0-2.63715,0.72121-4.69715,2.16177-6.17953
				c1.44242-1.48238,3.3895-2.22357,5.84309-2.22357c2.34114,0,4.16833,0.72074,5.48248,2.16223
				c1.31323,1.44149,1.97031,3.44015,1.97031,5.99551c0,2.50471-0.7082,4.51127-2.12366,6.01874
				C120.3534,26.32384,118.45465,27.07758,116.07262,27.07758z M116.25665,12.75519c-1.61529,0-2.8932,0.54974-3.83375,1.64874
				s-1.41081,2.61438-1.41081,4.54612c0,1.86064,0.47585,3.32815,1.42568,4.4016c0.9517,1.07345,2.22404,1.60971,3.81888,1.60971
				c1.6255,0,2.87553-0.52604,3.74916-1.57904c0.87456-1.053,1.31138-2.55118,1.31138-4.49361
				c0-1.96241-0.43682-3.47546-1.31138-4.53869C119.13218,13.2868,117.88215,12.75519,116.25665,12.75519z"/>
			<path class="st4" d="M126.52735,26.14261v-2.69896c1.36993,1.01211,2.8774,1.5177,4.52428,1.5177
				c2.20824,0,3.31235-0.73608,3.31235-2.20824c0-0.41916-0.09479-0.77418-0.28439-1.06601
				c-0.18866-0.2909-0.44424-0.54927-0.76674-0.77418c-0.32158-0.22491-0.69984-0.42659-1.1348-0.60596
				c-0.43402-0.17844-0.90244-0.36525-1.40338-0.55949c-0.69519-0.27603-1.3058-0.55392-1.83183-0.83552
				c-0.52696-0.28068-0.96657-0.59853-1.3188-0.95077c-0.35317-0.35271-0.61898-0.75374-0.79742-1.20356
				c-0.17937-0.44983-0.26859-0.97633-0.26859-1.5795c0-0.73608,0.16822-1.38758,0.50652-1.95544
				c0.33643-0.56693,0.78626-1.04278,1.34947-1.42569c0.56136-0.38384,1.20357-0.67241,1.92384-0.86666
				c0.72121-0.19424,1.46472-0.29136,2.23148-0.29136c1.3597,0,2.57626,0.23514,3.64972,0.70541v2.5456
				c-1.15524-0.75653-2.48427-1.13479-3.98709-1.13479c-0.47028,0-0.895,0.05391-1.27327,0.16078
				c-0.37827,0.10781-0.70262,0.25837-0.97307,0.45261c-0.27139,0.19424-0.4805,0.42706-0.6292,0.69797
				c-0.14778,0.27092-0.22214,0.56972-0.22214,0.89686c0,0.40893,0.07436,0.75141,0.22214,1.02744
				c0.1487,0.27603,0.36525,0.52139,0.65242,0.73608c0.28532,0.21469,0.63292,0.40893,1.04279,0.58273
				c0.408,0.1738,0.87363,0.36293,1.39502,0.56693c0.69518,0.26581,1.3188,0.53998,1.87086,0.82065
				c0.55206,0.28161,1.02232,0.5976,1.41081,0.95077c0.38849,0.35224,0.68774,0.75931,0.89687,1.21936
				c0.21004,0.46005,0.31506,1.00653,0.31506,1.64038c0,0.77697-0.17194,1.45171-0.51396,2.02422
				c-0.34294,0.57251-0.8002,1.04836-1.37271,1.42662c-0.57249,0.37826-1.23236,0.65894-1.97774,0.84296
				c-0.74724,0.18402-1.52885,0.27603-2.34671,0.27603C129.11385,27.07758,127.71326,26.76624,126.52735,26.14261z"/>
			<path class="st4" d="M153.03268,26.70954h-2.51494v-2.48426h-0.06134c-1.04277,1.90154-2.65805,2.8523-4.84584,2.8523
				c-3.74174,0-5.61261-2.22868-5.61261-6.68604V11.007h2.50008v8.98583c0,3.31235,1.26675,4.96853,3.80307,4.96853
				c1.22679,0,2.23611-0.45261,3.02795-1.35691c0.79277-0.90523,1.18869-2.08834,1.18869-3.55028V11.007h2.51494V26.70954z"/>
			<path class="st4" d="M165.74213,13.5526c-0.43961-0.33737-1.07346-0.50605-1.90154-0.50605
				c-1.07346,0-1.97032,0.50605-2.69153,1.51816c-0.72028,1.01211-1.08089,2.39226-1.08089,4.13998v8.00485h-2.51492V11.007h2.51492
				v3.23568h0.06134c0.35782-1.10412,0.9043-1.9652,1.64038-2.58418c0.73608-0.61805,1.55952-0.92753,2.46939-0.92753
				c0.6543,0,1.15524,0.07156,1.50284,0.21469V13.5526z"/>
			<path class="st4" d="M177.00728,5.67043c-0.49072-0.27603-1.04836-0.41404-1.67105-0.41404
				c-1.75934,0-2.6376,1.10923-2.6376,3.32769V11.007h3.68039v2.1469h-3.68039v13.55565h-2.50008V13.1539h-2.68408V11.007h2.68408
				V8.4614c0-1.64595,0.47586-2.94664,1.42569-3.90252c0.95171-0.95588,2.13667-1.43405,3.55772-1.43405
				c0.76767,0,1.37549,0.09201,1.82532,0.27603V5.67043z"/>
		</g>
		<g>
			<circle class="st4" cx="23.40713" cy="21.53575" r="5.52756"/>
			<g>
				<path class="st4" d="M6.53073,22.24457c-0.41748,0-0.8418-0.08887-1.24609-0.27539
					c-1.49219-0.68945-2.14307-2.45801-1.4541-3.9502c0.16406-0.35449,0.31055-0.72803,0.44824-1.14014
					c0.13818-0.41699,0.24756-0.81348,0.33252-1.20947c0.08936-0.4165,0.15137-0.80078,0.18945-1.17383
					c0.05029-0.48096,0.07178-0.89209,0.06592-1.26123c-0.00537-0.37988-0.03223-0.78613-0.08154-1.24463
					c-0.04492-0.42188-0.13721-0.86816-0.22168-1.24854c-0.07959-0.35791-0.20557-0.74658-0.33838-1.146
					C4.10886,9.2475,3.95358,8.87104,3.74948,8.44623C3.603,8.14106,3.4155,7.80219,3.1611,7.38276
					C2.95017,7.03364,2.72067,6.70747,2.478,6.41108L2.24753,6.12983C1.20749,4.85688,1.39694,2.98188,2.66989,1.94184
					C3.94431,0.9018,5.81882,1.09223,6.85788,2.3642l0.229,0.2793C7.50534,3.15473,7.89792,3.71235,8.2529,4.29877
					C8.60837,4.8852,8.88278,5.3852,9.11618,5.87006c0.31348,0.6543,0.56055,1.25635,0.75635,1.84326
					c0.17676,0.53125,0.36084,1.10205,0.50244,1.7373c0.12061,0.54492,0.25342,1.19385,0.3291,1.90479
					c0.06885,0.64063,0.10645,1.22705,0.11475,1.79004c0.00928,0.60547-0.02246,1.24854-0.09668,1.96289
					c-0.06055,0.58545-0.15527,1.17871-0.29053,1.80859c-0.13086,0.61182-0.29639,1.21436-0.50537,1.84229
					c-0.2085,0.62598-0.43457,1.19922-0.69141,1.75586C8.73239,21.60297,7.65573,22.24457,6.53073,22.24457z"/>
				<path class="st4" d="M4.55222,27.06489c-0.34863,0-0.70312-0.06152-1.04834-0.19238
					c-1.53857-0.5791-2.31592-2.2959-1.73682-3.83398l0.2124-0.57324c0.16895-0.45996,0.33838-0.91992,0.52441-1.37207
					c0.2627-0.63965,0.5332-1.27734,0.80811-1.91309c0.16699-0.38477,0.33789-0.7666,0.51221-1.14746
					c0.21973-0.4834,0.46387-0.95068,0.71191-1.41846c0.24609-0.46191,0.50342-0.91162,0.7749-1.354
					c0.26904-0.43848,0.56104-0.875,0.86377-1.29297l0.14648-0.20313c0.24951-0.34717,0.50146-0.69336,0.77295-1.02441
					l0.15283-0.18701c0.28027-0.34277,0.56348-0.68555,0.86377-1.00977c0.30615-0.33057,0.62207-0.65479,0.9375-0.97754
					l0.08984-0.0918c0.29248-0.29883,0.60742-0.57861,0.92285-0.85498l0.23096-0.20313
					c0.34375-0.30518,0.69922-0.58643,1.05713-0.86768l0.12256-0.09619c0.41943-0.3291,0.84668-0.63916,1.28711-0.93262
					c0.4375-0.2915,0.87646-0.57275,1.33008-0.83643l0.30322-0.17578c0.01465-0.0083,0.0293-0.0166,0.04395-0.02539l0.17773-0.09961
					c0.37744-0.2124,0.75586-0.42432,1.14063-0.62305c0.45996-0.2373,0.92139-0.47266,1.3916-0.68799
					c0.45068-0.20654,0.90283-0.41309,1.35889-0.6084c0.36328-0.15576,0.73096-0.30078,1.09912-0.44531l0.30176-0.11865
					c0.51074-0.20166,1.03027-0.39551,1.55225-0.56152l0.23682-0.07568c0.39844-0.12744,0.7959-0.25391,1.19775-0.37256
					c0.50293-0.14893,1.00732-0.29297,1.51807-0.41797c0.49268-0.12061,0.98535-0.23486,1.47998-0.34424
					c0.45508-0.10156,0.91748-0.18262,1.37939-0.2627l0.15381-0.02686c0.51807-0.08984,1.03809-0.16357,1.55762-0.23145
					c0.51611-0.06738,1.02979-0.12549,1.54688-0.1709c0.52246-0.04541,1.03076-0.08838,1.54297-0.11084l0.28564-0.0127
					c0.40479-0.01807,0.80908-0.03613,1.21387-0.04004c0.49609-0.00488,0.99072-0.00098,1.48584,0.01025l0.10791,0.00244
					c0.47998,0.01025,0.96143,0.02197,1.43994,0.05518c0.32813,0.02344,0.65479,0.05322,0.98145,0.0835l0.47852,0.04346
					c0.5415,0.0459,1.08545,0.10889,1.62549,0.19238l0.4209,0.0625c0.375,0.0542,0.75,0.10938,1.12109,0.18213l0.24414,0.04785
					c0.4043,0.07861,0.80859,0.15771,1.21094,0.24512c0.52002,0.11328,1.03516,0.23877,1.54639,0.37451l0.66162,0.1792
					c1.21143,0.31982,2.12891,1.35645,2.29541,2.60596c0.05859,0.4375,0.0918,1.53369-0.79395,2.51172
					c-0.11182,0.125-0.23535,0.24219-0.36963,0.34912c-0.10547,0.0835-0.21484,0.15918-0.32764,0.22705
					c-0.41797,0.26318-0.76855,0.51172-1.0708,0.75928c-0.40918,0.33496-0.76123,0.65869-1.07715,0.99023
					c-0.33838,0.35547-0.64014,0.71387-0.896,1.06396c-0.2832,0.38818-0.53369,0.77686-0.74512,1.15381
					c-0.22852,0.40771-0.43115,0.82275-0.62109,1.271l-0.05127,0.12158c-0.03809,0.1123-0.07764,0.22461-0.12012,0.33594
					c-0.0542,0.14307-0.13281,0.39551-0.19727,0.78857c-0.04688,0.28613-0.0708,0.58594-0.0708,0.89063
					c0,0.15186,0.00781,0.30127,0.01514,0.45264l0.00537,0.12256c0.00488,0.08057,0.021,0.16504,0.03369,0.24951l0.02979,0.21094
					c0.02051,0.14746,0.07031,0.39844,0.19385,0.74512c0.10742,0.30371,0.23828,0.60156,0.38818,0.88672
					c0.13672,0.25977,0.30322,0.5166,0.4917,0.75977c0.16943,0.2168,0.37354,0.4375,0.62256,0.6709
					c0.10742,0.10059,0.21826,0.19336,0.33301,0.28418c0.07373,0.05859,0.15527,0.11328,0.23633,0.16992l0.22119,0.15527
					c0.23535,0.16992,0.60889,0.33789,0.73193,0.39258c0.22266,0.10059,0.49951,0.19434,0.87744,0.29883
					c1.58545,0.43457,2.51855,2.07129,2.08398,3.65723c-0.43457,1.58496-2.07568,2.51758-3.65723,2.08301
					c-0.43213-0.11816-1.08301-0.31055-1.74854-0.61133c-0.70996-0.31836-1.27344-0.63379-1.76611-0.98926l-0.14697-0.10352
					c-0.17627-0.12305-0.35156-0.24707-0.52197-0.38184c-0.25-0.19727-0.48779-0.39941-0.71631-0.61426
					c-0.47656-0.44727-0.88574-0.8916-1.24902-1.3584c-0.40234-0.51855-0.75781-1.06934-1.05859-1.6377
					c-0.2832-0.53906-0.52881-1.09863-0.73096-1.66895c-0.23584-0.66309-0.39795-1.31445-0.48291-1.93652l-0.02148-0.14941
					c-0.04053-0.2793-0.07715-0.56006-0.08984-0.84131l-0.00537-0.11475c-0.01172-0.24414-0.02197-0.48584-0.02197-0.73193
					c0-0.62695,0.05078-1.25146,0.1499-1.85596c0.11621-0.70801,0.28711-1.36084,0.50781-1.94043l0.07373-0.2124
					c0.01318-0.03857,0.02637-0.07666,0.04102-0.11523c0.01709-0.04443,0.03467-0.08838,0.05371-0.13184l0.08105-0.19238
					c0.27637-0.65283,0.58203-1.27832,0.91309-1.86865c0.32568-0.58252,0.70654-1.17285,1.13037-1.75391
					c0.07275-0.1001,0.14795-0.2002,0.2251-0.30029c-0.17139-0.01904-0.34326-0.03564-0.51514-0.05029l-0.52051-0.04736
					c-0.28271-0.02588-0.56592-0.05273-0.84961-0.07227c-0.38232-0.02686-0.76758-0.03418-1.15137-0.04248l-0.10693-0.00244
					c-0.42969-0.0083-0.86377-0.01318-1.29541-0.00928c-0.33643,0.00342-0.67188,0.01953-1.00732,0.03467l-0.29834,0.01318
					c-0.42431,0.01855-0.84668,0.05615-1.27099,0.09326c-0.44385,0.03857-0.87451,0.08789-1.30518,0.14404
					c-0.43506,0.05664-0.87305,0.11768-1.30713,0.19336l-0.15625,0.02686c-0.37012,0.06445-0.74121,0.12744-1.10742,0.20898
					c-0.45459,0.10107-0.90527,0.20557-1.35547,0.31543c-0.41846,0.10254-0.83203,0.22217-1.24561,0.34424
					c-0.36084,0.10645-0.71631,0.2207-1.07275,0.33447l-0.24365,0.07764c-0.39453,0.12549-0.78516,0.27344-1.16895,0.4248
					l-0.31543,0.12451c-0.31104,0.12207-0.62207,0.24365-0.92969,0.37549c-0.41064,0.17578-0.81689,0.36182-1.22266,0.54785
					c-0.38623,0.17725-0.76563,0.37256-1.14307,0.56738c-0.3208,0.16504-0.63525,0.34326-0.9502,0.52002l-0.4502,0.2583
					c-0.35205,0.20459-0.6875,0.42139-1.02295,0.64502c-0.31201,0.20801-0.61524,0.42822-0.91065,0.66016l-0.12451,0.09766
					c-0.26367,0.20654-0.52686,0.41113-0.77783,0.63428l-0.26611,0.23389c-0.19873,0.17383-0.40088,0.34668-0.58447,0.53467
					l-0.09033,0.09277c-0.27832,0.28467-0.55811,0.56982-0.82861,0.8623c-0.21729,0.23486-0.41943,0.48437-0.62158,0.73193
					l-0.1626,0.19873c-0.18945,0.23047-0.36328,0.47607-0.53906,0.72021l-0.15918,0.22119
					c-0.21387,0.29492-0.41992,0.60254-0.61035,0.91309c-0.2085,0.33984-0.40527,0.68457-0.59229,1.03516
					c-0.18945,0.35645-0.38037,0.7168-0.55029,1.08984c-0.00098,0.00293-0.00244,0.00586-0.00342,0.00879
					c-0.1582,0.3457-0.31348,0.69043-0.46436,1.03906c-0.25977,0.59961-0.51563,1.20313-0.76416,1.80859
					c-0.15771,0.38281-0.2998,0.77246-0.44238,1.16113l-0.22949,0.62012C6.88913,26.32953,5.75583,27.06489,4.55222,27.06489z"/>
				<path class="st4" d="M4.5606,24.08059"/>
				<path class="st4" d="M4.5606,4.23809"/>
				<path class="st4" d="M44.2456,24.08061"/>
				<path class="st4" d="M4.5606,24.08061"/>
			</g>
		</g>
	</g>
</g>
</svg>
